<?xml version="1.0" encoding="UTF-8"?>
<svg id="Camada_1" data-name="Camada 1" xmlns="http://www.w3.org/2000/svg" viewBox="0 0 992.12 992.13">
  <defs>
    <style>
      .cls-1 {
        fill: #fff;
      }
    </style>
  </defs>
  <path class="cls-1" d="M663.1,759.43h56.15c3.55,0,6.43-2.88,6.43-6.43v-55.02c0-2.05-.99-3.99-2.64-5.2-1.66-1.2-3.81-1.55-5.75-.93l-56.15,17.97c-2.67.86-4.47,3.32-4.47,6.12v37.05c0,3.55,2.88,6.43,6.43,6.43ZM669.53,720.64l43.29-13.85v39.78h-43.29v-25.93Z"/>
  <path class="cls-1" d="M954.16,793.86c-.34-3.22-3.08-5.74-6.39-5.74h-31.19v-74.43c0-.23-.03-.42-.07-.58-.05-.42-.14-.77-.22-1.05l-.03-.12c-.06-.24-.14-.6-.34-.99-.19-.41-.43-.72-.59-.93l-.13-.18c-.16-.23-.38-.54-.71-.84-.3-.28-.59-.46-.79-.58l-.23-.15c-.22-.14-.52-.33-.89-.49-.14-.08-.31-.16-.52-.23l-163.92-51.37v-31.21c0-2-.95-3.92-2.55-5.13-1.62-1.23-3.67-1.61-5.62-1.07l-168.44,47.17c-2.76.77-4.69,3.32-4.69,6.19v115.97h-17.72c-3.31,0-6.05,2.52-6.39,5.74l-.04.69h.04c.34,3.22,3.08,5.74,6.39,5.74h398.64c3.31,0,6.05-2.52,6.39-5.74l.04-.69h-.04ZM633.09,788.12h-24.2v-48.91h24.2v48.91ZM735.28,788.12h-89.33v-55.33c0-3.55-2.88-6.43-6.43-6.43h-37.06c-3.55,0-6.43,2.88-6.43,6.43v55.34h-16.34v-75.16l155.58-43.57v118.72ZM735.28,656.04l-155.58,43.57v-22.58l155.58-43.56v22.58ZM748.14,669.67l119.99,37.6h-119.99v-37.6ZM861.05,788.12h-70.24v-5.11h70.24v5.11ZM861.05,770.15h-70.24v-5.1h70.24v5.1ZM861.05,752.19h-70.24v-5.1h70.24v5.1ZM903.72,788.12h-29.81v-47.46c0-3.55-2.88-6.43-6.43-6.43h-83.1c-3.55,0-6.43,2.88-6.43,6.43v47.47h-29.81v-68h155.58v67.99Z"/>
  <path class="cls-1" d="M182.76,287.21h87.03c4.79,0,8.7-3.92,8.7-8.7v-52.22c0-4.79-3.92-8.7-8.7-8.7h-87.03c-4.79,0-8.7,3.92-8.7,8.7v52.22c0,4.79,3.92,8.7,8.7,8.7ZM191.46,234.99h69.62v34.81h-69.62v-34.81Z"/>
  <path class="cls-1" d="M739.74,487.36c-139.29,0-252.38,113.09-252.38,252.38s113.09,252.38,252.38,252.38,252.38-113.09,252.38-252.38-113.09-252.38-252.38-252.38ZM739.74,974.73c-129.68,0-234.98-105.3-234.98-234.98s105.3-234.98,234.98-234.98,234.98,105.3,234.98,234.98-105.3,234.98-234.98,234.98Z"/>
  <path class="cls-1" d="M842.43,298.83l-183.24-204.78c-2.39-2.7-6.22-3.66-9.57-2.35-3.39,1.31-5.61,4.53-5.61,8.14v204.78c0,4.79,3.92,8.7,8.7,8.7h183.24c3.44,0,6.57-2,7.96-5.13,1.39-3.13.83-6.79-1.48-9.36ZM661.42,122.59l14.88,16.67h-14.88v-16.67ZM661.42,156.67h30.46l15.58,17.41h-46.04v-17.41ZM731.04,295.91h-69.62v-104.39h0v-.04s0,.04,0,.04h60.92l.7-.04,8.01,8.96v95.47ZM748.45,295.91v-76.02l68.01,76.02h-68.01Z"/>
  <path class="cls-1" d="M174.06,374.24c0,4.79,3.92,8.7,8.7,8.7h87.03c4.79,0,8.7-3.92,8.7-8.7v-52.22c0-4.79-3.92-8.7-8.7-8.7h-87.03c-4.79,0-8.7,3.92-8.7,8.7v52.22ZM191.46,330.72h69.62v34.81h-69.62v-34.81Z"/>
  <path class="cls-1" d="M322,287.21h87.03c4.79,0,8.7-3.92,8.7-8.7v-52.22c0-4.79-3.92-8.7-8.7-8.7h-87.03c-4.79,0-8.7,3.92-8.7,8.7v52.22c0,4.79,3.92,8.7,8.7,8.7ZM330.71,234.99h69.62v34.81h-69.62v-34.81Z"/>
  <path class="cls-1" d="M487.36,530.89c2.65,0,5.13-1.22,6.79-3.26l34.81-43.51c3-3.74,2.39-9.23-1.35-12.23-3.74-3-9.23-2.39-12.23,1.35l-32.2,40.25h-56.74v-87.03c0-4.79-3.92-8.7-8.7-8.7h-95.73c-4.79,0-8.7,3.92-8.7,8.7s3.92,8.7,8.7,8.7h87.03v17.41h-60.92c-4.79,0-8.7,3.92-8.7,8.7v52.22c0,4.79,3.92,8.7,8.7,8.7h60.92v17.41h-60.92c-4.79,0-8.7,3.92-8.7,8.7v52.22c0,4.79,3.92,8.7,8.7,8.7h60.92v17.41h-139.25c-4.79,0-8.7,3.92-8.7,8.7s3.92,8.7,8.7,8.7h217.7c2.22-5.92,4.66-11.71,7.31-17.41h-68.36v-95.73h60.92ZM409.03,504.78h-52.22v-34.81h52.22v34.81ZM409.03,591.81h-52.22v-34.81h52.22v34.81Z"/>
  <path class="cls-1" d="M17.4,652.68c0-24.02,19.49-43.51,43.51-43.51s43.51,19.49,43.51,43.51c0,4.79,3.92,8.7,8.7,8.7s8.7-3.92,8.7-8.7V156.62h487.36v17.41H147.95c-4.79,0-8.7,3.92-8.7,8.7v452.55c0,4.79,3.92,8.7,8.7,8.7h26.11c2.52,0,4.92-1.09,6.57-2.96l60.92-69.62c3.13-3.61,2.78-9.09-.83-12.27-3.61-3.13-9.09-2.78-12.27.83l-58.31,66.66h-13.45v-191.47h78.33c4.79,0,8.7-3.92,8.7-8.7s-3.92-8.7-8.7-8.7h-78.33v-226.27h309.69l58.35,58.35c3.39,3.39,8.92,3.39,12.31,0,3.39-3.39,3.39-8.92,0-12.31l-46.08-46.08h118.23v147.95c0,4.79,3.92,8.7,8.7,8.7h113.13v121.97c2.87-.09,5.79-.13,8.7-.13s5.83.04,8.7.13v-121.97h52.22v128.76c5.87,1.35,11.66,2.92,17.41,4.66v-133.42h17.41v139.34c5.92,2.22,11.71,4.66,17.41,7.31v-146.69h60.92c3.44,0,6.57-2,7.96-5.13,1.39-3.13.83-6.79-1.48-9.36l-67.4-75.32V113.11c0-4.79-3.92-8.7-8.7-8.7h-128.93L624.39,2.89c-2.39-2.65-6.22-3.61-9.57-2.31-3.39,1.31-5.61,4.53-5.61,8.14v95.73H121.84v-43.51C121.84,27.3,94.56.01,60.92.01S0,27.3,0,60.93v626.61c0,24.02,19.49,43.51,43.51,43.51h426.57v-.05c.22-5.83.56-11.66,1.13-17.41H43.51c-11.36,0-21.06-7.27-24.63-17.41h454.56c.96-5.87,2.13-11.66,3.44-17.41H17.4v-26.11ZM835.47,121.86v116.97l-17.41-19.45v-71.41c0-4.79-3.92-8.7-8.7-8.7h-62.96l-15.58-17.41h104.65ZM800.66,156.67v43.25l-38.73-43.25h38.73ZM626.61,31.47l267.74,299.25h-267.74V31.47ZM121.84,121.85h487.36v17.41H121.84v-17.41ZM17.4,60.93c0-24.02,19.49-43.51,43.51-43.51s43.51,19.49,43.51,43.51v549.2c-11.05-11.31-26.46-18.32-43.51-18.32s-32.46,7.05-43.51,18.32V60.93Z"/>
  <path class="cls-1" d="M644,487.47v-69.71c0-4.79-3.92-8.7-8.7-8.7h-156.65v-139.25c0-4.79-3.92-8.7-8.7-8.7s-8.7,3.92-8.7,8.7v147.95c0,4.79,3.92,8.7,8.7,8.7h121.85v87.03h-17.41c-4.79,0-8.7,3.92-8.7,8.7,0,3.35,1.87,6.22,4.61,7.7v-.04c12.13-9.83,25.14-18.62,38.89-26.24v-77.19h17.41v68.36c5.7-2.61,11.49-5.05,17.41-7.31Z"/>
</svg>