<?xml version="1.0" encoding="UTF-8"?>
<svg id="Camada_1" data-name="Camada 1" xmlns="http://www.w3.org/2000/svg" viewBox="0 0 916.25 850.39">
  <defs>
    <style>
      .cls-1 {
        fill: #fff;
      }
    </style>
  </defs>
  <path class="cls-1" d="M316.16,119.48h378.73v104.8l-1,1.46c-4.93,7.19-7.53,15.62-7.53,24.39,0,19,12.75,36.04,30.99,41.45l4.09,1.21v16.72c0,4.53,3.68,8.21,8.21,8.21,7.54,0,13.68,6.14,13.68,13.68s-6.14,13.68-13.68,13.68c-5.51,0-10.26-3.27-12.43-7.97h-17.07c2.67,13.85,14.89,24.34,29.5,24.34,16.57,0,30.05-13.48,30.05-30.05,0-12.09-7.23-22.96-18.41-27.69l-3.48-1.47v-9.44l4.09-1.21c18.25-5.41,30.99-22.45,30.99-41.45,0-8.77-2.6-17.2-7.53-24.39l-1-1.46v-104.8h109.32c3.43,0,6.53-2.17,7.72-5.41,1.18-3.22.21-6.84-2.46-9.03l-97.23-81.28c-1.45-1.22-3.36-1.92-5.25-1.92l-483.64-.17-3.83-15.46c-.9-3.65-4.16-6.21-7.93-6.21h-66.57c-3.78,0-7.04,2.55-7.93,6.22l-3.83,15.39-194.52-.06c-2.17,0-4.28.86-5.79,2.37-1.54,1.54-2.43,3.65-2.43,5.79v114.73c0,30.03,24.43,54.46,54.46,54.46h121.33v117.4c0,3.18,1.9,6.1,4.84,7.43l3.35,1.52v304.49s.23,27.74.23,27.74v112.96l-3.92,1.29c-9.71,3.21-17.12,10.96-19.81,20.74l-11.57,41.85c-.68,2.39-.15,5.05,1.39,7.08,1.58,2.05,4.02,3.28,6.54,3.28h182.26c2.54,0,4.97-1.21,6.54-3.28,1.52-1.98,2.03-4.66,1.38-7.12l-11.56-41.82c-2.69-9.78-10.09-17.53-19.8-20.73l-3.92-1.29v-112.9s-.28-27.76-.28-27.76v-305.27h28.72c16.72,0,30.33-13.6,30.33-30.33v-36.26c0-1.01-.2-2.08-.55-3l-53.79-135.45ZM784.72,47.59l66.4,55.46h-66.4v-55.46ZM342.66,230.49l.37.99v.13c1.24,4.02.59,8.39-1.81,11.9-1.25,1.83-4.87,6.08-11.5,6.08h-67.86c-13.72,0-24.94-11.16-25.02-24.88l-.42-86.84h69.44l36.79,92.62ZM729.59,276.88c-14.82,0-26.87-12.05-26.87-26.87s12.05-26.87,26.87-26.87,26.87,12.05,26.87,26.87-12.05,26.87-26.87,26.87ZM711.25,210.16v-90.74h36.67v90.74l-7.16-1.89c-3.76-.99-7.52-1.49-11.17-1.49s-7.41.5-11.17,1.49l-7.16,1.89ZM768.35,103.05h-92.01l92.01-58.47v58.47ZM656.64,90.54v-52.45h91.34l-91.34,62.87v-10.41ZM640.27,103.05h-92.01l92.01-58.47v58.47ZM528.61,85.78v-47.75h91.39l-91.39,60.29v-12.54ZM512.24,103.05h-92.01l92.01-58.47v58.47ZM400.52,85.78v-47.8h91.44l-91.54,58.56.1-10.76ZM384.15,102.98h-71.12l-1.59-6.35v-5.91l72.71-46.21v58.47ZM363.97,37.9l-57.96,36.9-9.18-36.9h67.14ZM220.8,16.24h53.77l26.19,105.32h-106.15l26.19-105.32ZM16.37,37.79h91.73L16.37,96.1v-58.31ZM128.09,44.5v58.47H36.08l92.01-58.47ZM176.27,127.4c-.21.76-.42,1.63-.42,2.37v52.69H54.52c-21.04,0-38.15-17.11-38.15-38.15v-24.12h161.86s-1.97,7.21-1.97,7.21ZM182.46,103.05h-25.58l-12.7-.07.27-11.56v-53.57h54.2l-16.2,65.2ZM319.38,796.8l8.67,31.47h-160.69l8.68-31.52c1.72-6.01,7.23-10.2,13.4-10.2h116.52c6.3,0,11.82,4.24,13.42,10.25ZM275.73,373.13l7.77,9.37h-83.08v-58.11h34.59l40.72,48.75ZM256.29,324.39h38.84v46.55l-38.84-46.55ZM295.13,398.87v99.46l-83.08-99.46h83.08ZM283.5,509.97h-83.08v-99.46l83.08,99.46ZM295.13,526.34v99.46l-83.08-99.46h83.08ZM281.81,635.42h-81.39v-97.44l81.39,97.44ZM295.13,653.8v99.46l-83.08-99.46h83.08ZM287.93,770.24h-87.57v-104.85l87.57,104.85ZM354.12,294.12c0,7.7-6.26,13.96-13.96,13.96h-147.99s0-170.09,0-170.09h27.89l.42,86.9c.1,22.71,18.66,41.18,41.38,41.18h67.86c5.51,0,10.94-1.55,15.7-4.48l8.7-5.36v37.89Z"/>
  <path class="cls-1" d="M862.18,396.2h-259.54c-29.85.04-54.03,24.22-54.07,54.07v335.24l1.08,21.63c5.17,25.16,27.3,43.22,52.99,43.26h259.54c29.85-.04,54.03-24.22,54.07-54.07v-346.05c-.04-29.85-24.22-54.03-54.07-54.07ZM894.62,796.32c0,17.92-14.52,32.44-32.44,32.44h-259.54c-17.92,0-32.44-14.52-32.44-32.44v-346.05c0-17.92,14.53-32.44,32.44-32.44h259.54c17.92,0,32.44,14.52,32.44,32.44v346.05Z"/>
  <path class="cls-1" d="M818.92,439.46h-173.02c-29.85.04-54.03,24.22-54.07,54.07v43.26c.04,29.85,24.22,54.03,54.07,54.07h173.02c29.85-.04,54.03-24.22,54.07-54.07v-43.26c-.04-29.85-24.22-54.03-54.07-54.07ZM851.36,536.79c0,17.92-14.53,32.44-32.44,32.44h-173.02c-17.92,0-32.44-14.52-32.44-32.44v-43.26c0-17.92,14.52-32.44,32.44-32.44h173.02c17.92,0,32.44,14.52,32.44,32.44v43.26Z"/>
  <path class="cls-1" d="M635.08,612.48c-23.89,0-43.26,19.37-43.26,43.26s19.37,43.26,43.26,43.26,43.26-19.37,43.26-43.26-19.37-43.26-43.26-43.26ZM635.08,677.37c-11.94,0-21.63-9.68-21.63-21.63s9.68-21.63,21.63-21.63,21.63,9.68,21.63,21.63-9.68,21.63-21.63,21.63Z"/>
  <path class="cls-1" d="M732.41,612.48c-23.89,0-43.26,19.37-43.26,43.26s19.37,43.26,43.26,43.26,43.26-19.37,43.26-43.26-19.37-43.26-43.26-43.26ZM732.41,677.37c-11.94,0-21.63-9.68-21.63-21.63s9.68-21.63,21.63-21.63,21.63,9.68,21.63,21.63-9.68,21.63-21.63,21.63Z"/>
  <path class="cls-1" d="M635.08,720.63c-23.89,0-43.26,19.37-43.26,43.26s19.37,43.26,43.26,43.26,43.26-19.37,43.26-43.26-19.37-43.26-43.26-43.26ZM635.08,785.51c-11.94,0-21.63-9.68-21.63-21.63s9.68-21.63,21.63-21.63,21.63,9.68,21.63,21.63-9.68,21.63-21.63,21.63Z"/>
  <path class="cls-1" d="M732.41,720.63c-23.89,0-43.26,19.37-43.26,43.26s19.37,43.26,43.26,43.26,43.26-19.37,43.26-43.26-19.37-43.26-43.26-43.26ZM732.41,785.51c-11.94,0-21.63-9.68-21.63-21.63s9.68-21.63,21.63-21.63,21.63,9.68,21.63,21.63-9.68,21.63-21.63,21.63Z"/>
  <path class="cls-1" d="M829.73,612.48c-23.89,0-43.26,19.37-43.26,43.26v108.14c0,23.89,19.37,43.26,43.26,43.26s43.26-19.37,43.26-43.26v-108.14c0-23.89-19.37-43.26-43.26-43.26ZM851.36,763.88c0,11.94-9.68,21.63-21.63,21.63s-21.63-9.68-21.63-21.63v-108.14c0-11.94,9.68-21.63,21.63-21.63s21.63,9.68,21.63,21.63v108.14Z"/>
</svg>