<?xml version="1.0" encoding="UTF-8"?>
<svg id="Camada_1" data-name="Camada 1" xmlns="http://www.w3.org/2000/svg" viewBox="0 0 819.57 850.39">
  <defs>
    <style>
      .cls-1 {
        fill: #fff;
      }
    </style>
  </defs>
  <path class="cls-1" d="M819.05,714.65V123.51c-.54-68.1-58.06-123.51-128.23-123.51-16.03,0-31.9,2.96-48.54,9.06-5.25,1.97-8.65,7.12-8.65,13.13v102.13H13.31c-7.34,0-13.31,5.97-13.31,13.31v699.45c0,7.34,5.97,13.31,13.31,13.31h678.03c1.07,0,2.36,0,3.76-.54,33.37-.91,64.59-14.15,87.97-37.31,23.54-23.33,36.5-54.13,36.5-86.72,0-3.63,0-7.38-.52-11.17ZM646.94,638.84c3.56,0,7.26-1.61,9.52-4.07,12.54-4.29,23.95-6.38,34.88-6.38,39.38,0,75.32,22.15,92.13,56.59-18.84,18.1-43.87,28.05-70.71,28.05h-280.78v-16.99c0-7.34-5.97-13.31-13.31-13.31s-13.31,5.97-13.31,13.31v16.99h-202.17v-177.1h14.37c7.34,0,13.31-5.97,13.31-13.31s-5.97-13.31-13.31-13.31h-14.37v-113.37h90.91v113.37h-13.33c-7.34,0-13.31,5.97-13.31,13.31s5.97,13.31,13.31,13.31h26.64c7.34,0,13.31-5.97,13.31-13.31v-98.48h9.67c7.34,0,13.31-5.97,13.31-13.31s-5.97-13.31-13.31-13.31h-9.67v-14.9c0-7.34-5.97-13.31-13.31-13.31h-164.82v-121.73h370.9v163.25c0,7.34,5.97,13.31,13.31,13.31h71.56c7.34,0,13.31-5.97,13.31-13.31s-5.97-13.31-13.31-13.31h-58.25v-149.94h93.52v377.94c0,7.34,5.97,13.31,13.31,13.31ZM792.43,649.3c-24.05-29.91-61.21-47.53-101.09-47.53-10.33,0-20.54,1.27-31.09,3.86V31.07c9.56-2.95,19.83-4.45,30.57-4.45,56.03,0,101.61,43.71,101.61,97.43v525.25ZM633.63,220.96H129.28c-7.34,0-13.31,5.97-13.31,13.31v148.35c0,7.34,5.97,13.31,13.31,13.31h47.28v330.41c0,7.34,5.97,13.31,13.31,13.31h526.6c27.47-.5,54.19-9.82,75.78-26.34.11.99.18,2.01.18,3.1v10.45c0,1.02,0,1.92.5,3.16-1.15,24.86-12.12,48.15-30.93,65.65-19.11,17.78-44.2,27.57-70.66,27.57-1.06,0-2.34,0-3.72.52H26.62V150.95h607.01v70.02Z"/>
  <path class="cls-1" d="M418.67,331.18c-7.34,0-13.31,5.97-13.31,13.31v53.03h-9.67c-7.34,0-13.31,5.97-13.31,13.31s5.97,13.31,13.31,13.31h9.67v191.46c0,7.34,5.97,13.31,13.31,13.31s13.31-5.97,13.31-13.31v-271.11c0-7.34-5.97-13.31-13.31-13.31Z"/>
</svg>