<?xml version="1.0" encoding="UTF-8"?>
<svg id="Camada_1" data-name="Camada 1" xmlns="http://www.w3.org/2000/svg" viewBox="0 0 954.53 928.43">
  <defs>
    <style>
      .cls-1 {
        fill: #fff;
      }
    </style>
  </defs>
  <path class="cls-1" d="M180.02,630.62c-12.23,0-23.73,4.76-32.38,13.41-8.65,8.65-13.41,20.15-13.41,32.38s4.76,23.73,13.41,32.38c8.65,8.65,20.15,13.41,32.38,13.41s23.73-4.76,32.38-13.41c8.65-8.65,13.41-20.15,13.41-32.38s-4.76-23.73-13.41-32.38c-8.65-8.65-20.15-13.41-32.38-13.41ZM202.75,699.14c-6.07,6.07-14.14,9.41-22.72,9.41s-16.65-3.34-22.72-9.41c-6.07-6.07-9.41-14.14-9.41-22.72s3.34-16.65,9.41-22.72c6.07-6.07,14.14-9.41,22.72-9.41s16.65,3.34,22.72,9.41c6.07,6.07,9.41,14.14,9.41,22.72s-3.34,16.65-9.41,22.72Z"/>
  <path class="cls-1" d="M294.01,683.25h22.39c3.77,0,6.83-3.06,6.83-6.83v-41.84c0-3.77-3.07-6.83-6.83-6.83h-22.39v-9.78c0-14.78-5.79-28.71-16.31-39.23-8.28-8.28-18.67-13.61-29.93-15.52v-.13s-3.23-.32-3.23-.32c-.24-.03-.48-.06-.72-.08l-3.59-.36v.13c-.65-.02-1.23-.03-1.76-.03h-116.9c-.63,0-1.34.02-2.1.05-13.99.52-27.11,6.24-37.13,16.26-10.52,10.52-16.31,24.45-16.31,39.23v116.9c0,14.78,5.79,28.71,16.31,39.23,10.52,10.52,24.45,16.31,39.23,16.31h165.61s0,0,.01,0h29.2s0,0,.01,0,0,0,.01,0h19.46s0,0,.01,0,0,0,.01,0h19.46s0,0,.01,0,0,0,.01,0h19.46s0,0,.01,0,0,0,.01,0h19.46s0,0,.01,0,0,0,.01,0h19.46s0,0,.01,0,0,0,.01,0h19.47c3.77,0,6.83-3.06,6.83-6.83v-61.33c0-3.77-3.06-6.83-6.83-6.83h-139.3v-32.17ZM294.01,641.4h15.56v28.18h-15.56v-28.18ZM233.29,576.09c-2.54,2.75-6.5,5.42-11.52,7.72-11.05,5.06-25.88,7.84-41.75,7.84s-30.7-2.79-41.75-7.84c-5.03-2.3-8.98-4.97-11.52-7.72h106.54ZM240.99,776.74h-93.1v-15.56h93.1v15.56ZM280.35,634.57v142.17h-25.7v-22.39c0-3.77-3.06-6.83-6.83-6.83h-106.77c-3.77,0-6.83,3.07-6.83,6.83v22.39h-12.65c-11.13,0-21.63-4.37-29.57-12.31-7.94-7.94-12.31-18.44-12.31-29.57v-116.9c0-11.13,4.37-21.63,12.31-29.57,5.49-5.49,12.21-9.27,19.51-11.08,3.03,7.4,10.26,13.94,21.09,18.9,12.82,5.87,29.66,9.1,47.42,9.1s34.6-3.23,47.42-9.1c10.81-4.95,18.05-11.5,21.09-18.9,7.3,1.81,14.02,5.59,19.51,11.08,7.94,7.94,12.31,18.44,12.31,29.57v16.61ZM426.48,729.08v47.66h-5.82v-36.25c0-3.77-3.07-6.83-6.83-6.83s-6.83,3.07-6.83,6.83v36.25h-5.82v-19.45c0-3.77-3.06-6.83-6.83-6.83s-6.83,3.07-6.83,6.83v19.45h-5.82v-36.25c0-3.77-3.07-6.83-6.83-6.83s-6.83,3.07-6.83,6.83v36.25h-5.82v-19.45c0-3.77-3.07-6.83-6.83-6.83s-6.83,3.07-6.83,6.83v19.45h-5.82v-36.25c0-3.77-3.07-6.83-6.83-6.83s-6.83,3.07-6.83,6.83v36.25h-5.82v-19.45c0-3.77-3.07-6.83-6.83-6.83s-6.83,3.07-6.83,6.83v19.45h-15.56v-47.66h132.46Z"/>
  <path class="cls-1" d="M180.02,611.13c-17.44,0-33.83,6.79-46.16,19.12-12.33,12.33-19.12,28.72-19.12,46.16s6.79,33.83,19.12,46.16c12.33,12.33,28.72,19.12,46.16,19.12s33.83-6.79,46.16-19.12c12.33-12.33,19.12-28.72,19.12-46.16s-6.79-33.83-19.12-46.16c-12.33-12.33-28.72-19.12-46.16-19.12ZM216.52,712.92c-9.75,9.75-22.71,15.12-36.5,15.12s-26.75-5.37-36.5-15.12c-9.75-9.75-15.12-22.71-15.12-36.5s5.37-26.75,15.12-36.5c9.75-9.75,22.71-15.12,36.5-15.12s26.75,5.37,36.5,15.12c9.75,9.75,15.12,22.71,15.12,36.5s-5.37,26.75-15.12,36.5Z"/>
  <path class="cls-1" d="M252.01,424.4c-67.31,0-130.6,26.21-178.2,73.81C26.21,545.81,0,609.1,0,676.42s26.21,130.6,73.81,178.2,110.88,73.81,178.2,73.81,130.6-26.21,178.2-73.81c47.6-47.6,73.81-110.88,73.81-178.2s-26.21-130.6-73.81-178.2c-47.6-47.6-110.88-73.81-178.2-73.81ZM417.3,841.71c-44.15,44.15-102.85,68.47-165.29,68.47s-121.14-24.31-165.29-68.47c-44.15-44.15-68.47-102.85-68.47-165.29s24.31-121.14,68.47-165.29c44.15-44.15,102.85-68.47,165.29-68.47s121.14,24.31,165.29,68.47c44.15,44.15,68.47,102.85,68.47,165.29s-24.31,121.14-68.47,165.29Z"/>
  <path class="cls-1" d="M949.78,566.7l-105.34-60.82.22-77.15,95.62,55.2c4.59,2.64,10.4,1.03,12.98-3.48,2.64-4.55,1.08-10.36-3.47-12.99l-105.06-60.66.45-159.76c.02-5.26-4.23-9.52-9.49-9.54h-.02c-5.24,0-9.49,4.24-9.51,9.48l-.42,148.86-59.42-34.31.45-159.75c.02-5.26-4.23-9.52-9.49-9.54h-.02c-5.24,0-9.49,4.24-9.51,9.48l-.42,148.85-124.53-71.89-21.61-92.71c-.53-2.26-3.27-5.46-4.42-6.12L287.45,1.27c-2.95-1.71-6.61-1.69-9.53.02-221.79,128.87-26.45,15.37-110.28,64.08-3.05,1.77-4.73,6.28-4.74,8.19l-.94,336.99c6.25-2.12,12.6-4.01,19.04-5.69l.89-314.83,291.51,168.3c17.85,76.85,3.19,13.74,23.22,99.92.22.85,1.8,3.57,1.98,3.78,7.85,13.61,62.91,51.95,117.3,225.9.84,2.78,2.92,5.02,5.61,6.09.2.08.41.05.6.11.04.01.06.05.1.06,70.62,22.66,133.43,51.45,185.04,105.54l-.52,187.11-278.49-160.79c-1.18,6.59-2.59,13.1-4.22,19.52l287.43,165.95c2.93,1.69,6.56,1.7,9.49,0,.01,0,.01-.02.02-.02,38.49-22.37,106.49-61.9,110.27-64.09,2.93-1.69,4.72-4.81,4.74-8.19l.59-207.47c.01-1.79-1.62-5.51-2.56-6.52-23.88-25.59-50.96-46.97-82.77-65.34-2.22-1.28-4.68-2.46-6.95-3.71l.08-28.4,95.9,55.37c4.57,2.62,10.39,1.05,12.98-3.48,2.64-4.55,1.08-10.36-3.47-12.99ZM766.24,383.46l59.42,34.31-.22,77.15-59.42-34.31.22-77.15ZM765.96,482.53l59.42,34.31-.08,29.35c-17.79-8.7-37.46-16.84-59.45-24.72l.11-38.93ZM747.26,372.5l-.22,77.15-32.63-18.84c-3.19-7.43-6.23-14.94-9.77-22.16-18-36-37.27-67.31-57.43-93.91l100.05,57.76ZM733.18,481.27c-2.25-7.46-5.05-14.74-7.66-22.09l21.45,12.39-.12,43.39c-1.27-.42-2.42-.85-3.71-1.27l-9.97-32.42ZM736.61,531.44c.28-.16.29-.17,0,0h0ZM191.4,73.56l91.31-53.07,290.3,167.61c-29.2,16.97-95.58,55.55-91.31,53.07-6.96-4.02-48.27-27.87-290.31-167.61ZM492.64,256.87s0,.01,0,.03l92.93-54.09,14.64,62.83-33.71-19.46c-4.53-2.59-10.36-1.06-12.98,3.48-2.64,4.55-1.08,10.36,3.47,12.99l45.26,26.13-90.09,52.34c-.41-1.79-18.45-79.6-19.53-84.26ZM520.56,358.26l93.6-54.22c25.47,28.94,49.69,66.14,72.07,110.49l-68.48-39.54c-4.53-2.61-10.36-1.08-12.98,3.48-2.64,4.55-1.08,10.36,3.47,12.99l91.31,52.72c5.76,13.96,11.08,28.13,15.45,42.63l9.16,29.8c-1.91,1.11-99.68,57.89-93.44,54.27-25.91-81.42-48.23-140.27-110.16-212.63ZM916.98,833.73l-91.21,53.01.51-185.44c2.55-1.48,85.8-49.86,91.22-53.01l-.52,185.44ZM911.78,629.63l-93.28,54.21c-47.55-48.78-105.92-78.66-170.39-101.04,1.81-1.05,83.4-48.4,88.47-51.34,3.59,1.17,6.75,2.37,10.22,3.55l-.15,53.42c-.02,5.26,4.23,9.52,9.49,9.54h.02c5.24,0,9.49-4.24,9.51-9.48l.13-46.89c22.28,8.22,41.71,16.79,59.45,25.96l-.19,66.14c-.02,5.26,4.23,9.52,9.49,9.54h.02c5.24,0,9.49-4.24,9.51-9.48l.16-55.82c25.42,14.95,47.7,31.91,67.55,51.7Z"/>
  <path class="cls-1" d="M931.38,847.35s-.07.04-.14.08c0,0,0,0,0,0,.07-.04.11-.07.14-.08Z"/>
</svg>