<?xml version="1.0" encoding="UTF-8"?>
<svg id="Camada_1" data-name="Camada 1" xmlns="http://www.w3.org/2000/svg" viewBox="0 0 850.65 850.39">
  <defs>
    <style>
      .cls-1 {
        fill: #fff;
      }
    </style>
  </defs>
  <path class="cls-1" d="M677.66,744.61h-23.42c-12.44,0-12.44,18.92,0,18.92h23.42c12.44,0,12.44-18.92,0-18.92Z"/>
  <path class="cls-1" d="M823.84,777.5v-158.08c0-21.82-17.85-39.66-39.66-39.66h-236.47c-21.82,0-39.66,17.85-39.66,39.66v158.08c-6.11,1.78-11.63,5.05-15.97,9.43-23.31,23.25-6.48,62.8,25.99,62.8h295.76c10.13,0,19.36-4.12,26.05-10.78,20.04-20.1,10.66-53.84-16.03-61.46ZM526.95,619.44c0-11.36,9.32-20.74,20.74-20.74h236.47c11.42,0,20.74,9.38,20.74,20.74v93.82h-277.95v-93.82ZM526.95,732.17h277.95v43.93h-277.95v-43.93ZM813.8,830.83h-295.74c-4.93,0-9.38-1.98-12.65-5.26-11.42-11.36-3.06-30.55,12.65-30.55h295.74c4.93,0,9.38,2.04,12.65,5.26,11.42,11.42,3.06,30.55-12.65,30.55Z"/>
  <path class="cls-1" d="M350.08,102.21h144.64c12.44,0,12.44-18.92,0-18.92h-144.64c-12.44,0-12.44,18.92,0,18.92Z"/>
  <path class="cls-1" d="M184.22,591.14c-42.38,0-76.73,34.41-76.73,76.79s34.35,76.79,76.73,76.79,76.79-34.41,76.79-76.79-34.35-76.79-76.79-76.79ZM184.22,725.8c-31.95,0-57.88-25.94-57.87-57.87,0-31.99,25.94-57.87,57.87-57.87s57.87,25.88,57.87,57.87-25.88,57.87-57.87,57.87Z"/>
  <path class="cls-1" d="M663.48,274.25v231.97c0,12.44,18.92,12.44,18.92,0v-231.97c0-12.44-18.92-12.44-18.92,0Z"/>
  <path class="cls-1" d="M354.41,627.02h-30.61c-2.95-10.02-6.98-19.72-12-28.89l21.65-21.65c3.16-3.16,3.71-8.26,1.08-12.06-12.53-18.22-28.03-33.76-46.24-46.41-3.71-3.06-9.17-2.84-12.65.64l-21.65,21.65c-9.17-5.03-18.81-9.05-28.83-12l-.06-30.61c0-4.44-3.16-8.41-7.71-9.26-21.97-4.03-44.31-4.03-66.28,0-4.56.85-7.71,4.82-7.71,9.26l-.06,30.61c-10.02,2.95-19.66,6.98-28.83,12l-21.7-21.65c-3.42-3.48-8.94-3.71-12.65-.64-18.17,12.65-33.65,28.19-46.24,46.41-2.63,3.8-2.04,8.9,1.13,12.06l21.65,21.65c-5.03,9.17-9.06,18.87-12,28.89H14.03c-4.88,0-8.9,3.74-9.38,8.53-3.86,21.49-3.86,43.25,0,64.73.47,4.76,4.5,8.53,9.38,8.53h30.64c2.95,10.02,6.98,19.72,12,28.83l-21.65,21.7c-3.16,3.16-3.74,8.2-1.13,12,12.59,18.28,28.07,33.82,46.24,46.47,3.71,3.06,9.23,2.84,12.65-.64l21.7-21.65c9.17,5.03,18.81,9,28.83,11.95l.06,30.64c0,4.44,3.16,8.41,7.71,9.26,21.99,4.03,44.33,4.03,66.32.02,4.56-.85,7.71-4.82,7.71-9.26l.06-30.64c10.02-2.95,19.66-6.92,28.83-11.95l21.65,21.63c3.48,3.48,8.94,3.71,12.65.64,18.22-12.65,33.71-28.19,46.24-46.47,2.63-3.8,2.1-8.85-1.08-12l-21.65-21.7c5.03-9.11,9.06-18.81,12-28.83h30.61c4.93,0,8.94-3.74,9.43-8.53,3.86-21.49,3.86-43.25,0-64.73-.49-4.76-4.5-8.53-9.43-8.53ZM346.38,689.88h-29.85c-4.29,0-8.15,2.95-9.17,7.3-3.06,12.85-8.09,25.18-14.95,36.45-2.74,3.71-2.42,8.94.91,12.27l21.12,21.12c-8.9,11.63-19.45,22.19-31.08,31.14l-21.17-21.12c-3.01-3.01-7.83-3.71-11.57-1.34-11.36,7.01-23.84,12.16-36.81,15.27-4.35.85-7.56,4.67-7.56,9.26v29.85c-14.42,1.93-29.64,1.93-43.99,0v-29.85c0-4.61-3.27-8.41-7.56-9.26-13.02-3.1-25.44-8.26-36.81-15.27-3.8-2.36-8.58-1.66-11.63,1.34l-21.12,21.12c-11.63-8.94-22.19-19.51-31.08-31.14l21.12-21.12c3.33-3.33,3.65-8.58.91-12.27-6.86-11.25-11.89-23.57-14.95-36.45-1.02-4.35-4.93-7.3-9.23-7.3h-29.85c-1.93-14.37-1.93-29.58,0-43.93l29.85-.06c4.29.06,8.2-2.89,9.23-7.24,3.06-12.85,8.09-25.18,14.95-36.45,2.74-3.71,2.42-8.94-.91-12.27l-21.12-21.12c8.9-11.68,19.45-22.23,31.08-31.14l21.12,21.12c3.06,3.01,7.83,3.71,11.63,1.34,11.36-7.01,23.8-12.16,36.81-15.27,4.29-.85,7.56-4.71,7.56-9.26v-29.85c14.37-1.93,29.58-1.93,43.99,0v29.85c0,4.56,3.21,8.41,7.56,9.26,12.97,3.1,25.44,8.26,36.81,15.27,3.74,2.36,8.58,1.66,11.57-1.34l21.17-21.12c11.63,8.9,22.19,19.45,31.08,31.14l-21.12,21.12c-3.33,3.33-3.65,8.58-.91,12.27,6.86,11.25,11.89,23.57,14.95,36.45,1.02,4.35,4.88,7.28,9.17,7.24l29.85.06c1.98,14.37,1.98,29.58,0,43.93Z"/>
  <path class="cls-1" d="M155.05,189.62h-54.27c-5.24,0-9.47,4.22-9.49,9.43v55.52c0,5.2,4.23,9.43,9.49,9.43h54.27c5.26,0,9.49-4.23,9.49-9.43v-55.52c0-5.2-4.23-9.43-9.49-9.43ZM145.64,245.07h-35.43v-36.54h35.43v36.54Z"/>
  <path class="cls-1" d="M9.36,405.68v.04h433.04c12.44,0,12.44-18.92,0-18.92h-30.7v-196.6c0-5.95-5.52-10.51-11.42-9.23l-115.81,24.59-.06-196.13c0-5.9-5.52-10.45-11.36-9.23L48.09,48.05c-4.56.64-8.09,4.61-8.09,9.32v329.39H9.36c-12.48,0-12.48,18.92,0,18.92ZM343.53,385.9h-94.58v-85.9h94.58v85.9ZM392.85,201.78v184.13h-30.38v-95.33c0-5.26-4.23-9.49-9.43-9.49h-113.56c-5.2,0-9.43,4.23-9.43,9.49v95.33h-30.32v-143.03l193.12-41.1ZM58.92,65.02l206.64-43.93v188.46l-76.73,16.35c-4.56.64-8.05,4.59-8.05,9.32v150.68H58.92V65.02Z"/>
  <path class="cls-1" d="M155.05,287.83h-54.27c-5.24,0-9.47,4.23-9.49,9.49v55.46c0,5.26,4.23,9.49,9.49,9.49h54.27c5.26,0,9.49-4.23,9.49-9.49v-55.46c0-5.26-4.23-9.49-9.49-9.49ZM145.64,343.35h-35.43v-36.6h35.43v36.6Z"/>
  <path class="cls-1" d="M100.78,163.89h128.77c5.2,0,9.43-4.23,9.43-9.43v-55.46c0-5.26-4.23-9.49-9.43-9.49H100.78c-5.24,0-9.47,4.23-9.49,9.49v55.46c0,5.2,4.23,9.43,9.49,9.43ZM110.21,108.43h109.85v36.54h-109.85v-36.54Z"/>
  <path class="cls-1" d="M468.09,641.24h-51.99c-12.44,0-12.44,18.87,0,18.87h51.99c12.44,0,12.44-18.87,0-18.87Z"/>
  <path class="cls-1" d="M539.84,209.78h0l252.17-.04c11.61,0,21.06-9.45,21.06-21.06v-11.55c0-7.84-4.47-15.07-11.45-18.66-1.58-46.31-27.35-89.39-67.46-112.74-.74-2.8-2.48-5.27-4.82-6.83-8.44-5.77-17.13-10.45-25.86-13.93-.04-4.66-2.77-8.95-7.04-10.88-10.38-4.72-20.37-7.02-30.54-7.02s-20.38,2.36-30.55,7.03c-4.27,1.96-7,6.25-7.03,10.88-8.76,3.51-17.45,8.19-25.86,13.93-1.3.89-2.42,2.07-3.29,3.46h-1.76v3.52c-39.95,23.37-65.62,66.38-67.19,112.63-6.98,3.59-11.45,10.82-11.45,18.66v11.55c0,11.61,9.45,21.06,21.05,21.06ZM599.11,64.8l6.62,54.06c.5,4.25,4.1,7.45,8.38,7.45l1.04-.03c2.25-.29,4.26-1.43,5.65-3.23,1.37-1.78,1.97-3.97,1.69-6.17l-8-65.58c5.17-3.38,10.51-6.32,15.92-8.78l2.17,17.65c.29,2.26,1.49,4.35,3.3,5.72,1.8,1.36,3.98,1.93,6.11,1.61,2.25-.29,4.26-1.43,5.65-3.23,1.37-1.78,1.97-3.97,1.69-6.17l-3.68-30.01c13.77-5.51,26.72-5.51,40.56,0l-3.68,29.99c-.29,2.27.33,4.5,1.74,6.29,1.4,1.78,3.42,2.9,5.67,3.14l.96.02c4.28,0,7.88-3.2,8.38-7.43l2.17-17.64c5.38,2.44,10.73,5.39,15.92,8.79l-7.96,65.52c-.29,2.27.33,4.5,1.74,6.29,1.4,1.78,3.42,2.9,5.67,3.14l.96.02c4.28,0,7.88-3.2,8.38-7.44l6.58-54.04c30.85,20.92,49.64,54,51.82,91.28h-237.23c2.18-37.26,20.95-70.33,51.77-91.23ZM535.94,177.17c0-2.29,1.86-4.15,4.15-4.15h252.13c2.29,0,4.15,1.86,4.15,4.15v11.55c0,2.29-1.86,4.15-4.15,4.15h-252.13c-2.29,0-4.15-1.86-4.15-4.15v-11.55Z"/>
</svg>